<svg xmlns="http://www.w3.org/2000/svg" xmlns:xlink="http://www.w3.org/1999/xlink" width="74" height="70.449" viewBox="0 0 74 70.449"><defs><style>.a{fill:#e0e0e0;}.b,.l,.m,.n,.o{opacity:0.5;}.c{fill:url(#a);}.d{fill:#fafafa;}.e{fill:url(#b);}.f{fill:url(#c);}.g{fill:#ea4c89;}.h{fill:url(#d);}.i{fill:#fff;}.j{fill:url(#f);}.k,.o{fill:#47e6b1;}.l{fill:#4d8af0;}.m{fill:#fdd835;}.n{fill:#f55f44;}</style><linearGradient id="a" x1="0.509" y1="0.997" x2="0.509" y2="-0.003" gradientUnits="objectBoundingBox"><stop offset="0" stop-color="gray" stop-opacity="0.251"/><stop offset="0.54" stop-color="gray" stop-opacity="0.122"/><stop offset="1" stop-color="gray" stop-opacity="0.102"/></linearGradient><linearGradient id="b" x1="0.813" y1="0.841" x2="0.813" y2="-0.159" xlink:href="#a"/><linearGradient id="c" x1="1.78" y1="0.849" x2="1.78" y2="-0.151" xlink:href="#a"/><linearGradient id="d" x1="0.5" y1="1" x2="0.5" y2="0" xlink:href="#a"/><linearGradient id="f" x1="0.5" y1="0.999" x2="0.5" y2="-0.001" xlink:href="#a"/></defs><rect class="a" width="39.43" height="54.48" transform="matrix(0.978, -0.21, 0.21, 0.978, 6.236, 12.225)"/><g class="b" transform="translate(7.082 4.993)"><rect class="c" width="38.098" height="52.638" transform="matrix(0.978, -0.21, 0.21, 0.978, 0, 7.992)"/></g><rect class="d" width="37.128" height="51.475" transform="matrix(0.978, -0.21, 0.21, 0.978, 7.637, 13.263)"/><rect class="e" width="18.419" height="4.462" transform="matrix(0.978, -0.21, 0.21, 0.978, 16.362, 9.108)"/><path class="f" d="M440.512,91.329a2.636,2.636,0,1,0,3.068,2.037A2.606,2.606,0,0,0,440.512,91.329Zm.872,4.069a1.521,1.521,0,1,1,1.133-1.8,1.5,1.5,0,0,1-1.133,1.8Z" transform="translate(-416.06 -88.414)"/><rect class="g" width="18.031" height="4.265" transform="matrix(0.978, -0.21, 0.21, 0.978, 16.512, 8.88)"/><path class="g" d="M440.847,91.329a2.52,2.52,0,1,0,2.993,1.935A2.52,2.52,0,0,0,440.847,91.329Zm.834,3.889a1.454,1.454,0,1,1,1.117-1.727A1.454,1.454,0,0,1,441.681,95.218Z" transform="translate(-416.395 -88.414)"/><rect class="a" width="39.43" height="54.48" transform="translate(23.268 10.548)"/><g class="b" transform="translate(23.935 11.469)"><rect class="h" width="38.098" height="52.638"/></g><rect class="i" width="37.128" height="51.475" transform="translate(24.419 11.857)"/><rect class="h" width="18.419" height="4.462" transform="translate(33.823 9.625)"/><path class="j" d="M640.9,118a2.637,2.637,0,1,0,2.575,2.636A2.606,2.606,0,0,0,640.9,118Zm0,4.158a1.521,1.521,0,1,1,1.485-1.521,1.5,1.5,0,0,1-1.485,1.514Z" transform="translate(-597.863 -112.73)"/><rect class="g" width="18.031" height="4.265" transform="translate(34.017 9.434)"/><path class="g" d="M641.45,118a2.52,2.52,0,1,0,2.52,2.52A2.52,2.52,0,0,0,641.45,118Zm0,3.974a1.454,1.454,0,1,1,1.456-1.458,1.454,1.454,0,0,1-1.456,1.458Z" transform="translate(-598.418 -112.73)"/><g class="b" transform="translate(0.586 66.5)"><rect class="k" width="0.339" height="1.925" transform="translate(0.792)"/><rect class="k" width="0.339" height="1.925" transform="translate(1.925 0.793) rotate(90)"/></g><g class="b" transform="translate(39.944)"><rect class="k" width="0.339" height="1.925" transform="translate(0.792)"/><rect class="k" width="0.339" height="1.925" transform="translate(1.925 0.792) rotate(90)"/></g><path class="l" d="M946.981,824.391a.416.416,0,0,1-.232-.5.2.2,0,0,0,.009-.046h0a.208.208,0,0,0-.375-.138h0a.2.2,0,0,0-.024.041.416.416,0,0,1-.5.232.2.2,0,0,0-.046-.009h0a.208.208,0,0,0-.138.374h0a.2.2,0,0,0,.041.023.416.416,0,0,1,.232.5.2.2,0,0,0-.009.046h0a.208.208,0,0,0,.375.138h0a.2.2,0,0,0,.023-.041.416.416,0,0,1,.5-.232.2.2,0,0,0,.046.009h0a.208.208,0,0,0,.138-.374h0A.2.2,0,0,0,946.981,824.391Z" transform="translate(-877.41 -754.686)"/><path class="m" d="M312.571,619.331a.416.416,0,0,1-.232-.5.2.2,0,0,0,.009-.046h0a.208.208,0,0,0-.374-.138h0a.2.2,0,0,0-.023.041.416.416,0,0,1-.5.232.2.2,0,0,0-.046-.009h0a.208.208,0,0,0-.138.374h0a.2.2,0,0,0,.041.023.416.416,0,0,1,.232.5.2.2,0,0,0-.009.046h0a.208.208,0,0,0,.374.138h0a.2.2,0,0,0,.023-.041.416.416,0,0,1,.5-.232.2.2,0,0,0,.046.009h0a.208.208,0,0,0,.138-.374h0A.2.2,0,0,0,312.571,619.331Z" transform="translate(-300.24 -568.128)"/><path class="m" d="M840.981,120.01a.416.416,0,0,1-.232-.5.2.2,0,0,0,.009-.046h0a.208.208,0,0,0-.374-.138h0a.2.2,0,0,0-.024.041.416.416,0,0,1-.5.232.2.2,0,0,0-.046-.009h0a.208.208,0,0,0-.138.374h0a.2.2,0,0,0,.041.023.416.416,0,0,1,.232.5.2.2,0,0,0-.009.046h0a.208.208,0,0,0,.374.138h0a.2.2,0,0,0,.023-.041.416.416,0,0,1,.5-.232.2.2,0,0,0,.046.009h0a.208.208,0,0,0,.138-.374h0A.2.2,0,0,0,840.981,120.01Z" transform="translate(-780.974 -113.859)"/><circle class="n" cx="0.679" cy="0.679" r="0.679" transform="translate(72.641 27.694)"/><circle class="n" cx="0.679" cy="0.679" r="0.679" transform="translate(20.138 66.687)"/><circle class="n" cx="0.679" cy="0.679" r="0.679" transform="translate(65.664 42.379)"/><circle class="l" cx="0.679" cy="0.679" r="0.679" transform="translate(7.183 8.014)"/><circle class="o" cx="0.679" cy="0.679" r="0.679" transform="translate(0 26.547)"/></svg>