<svg xmlns="http://www.w3.org/2000/svg" width="13.634" height="12.222" viewBox="0 0 13.634 12.222"><defs><style>.a{fill:#ea4c89;fill-rule:evenodd;}</style></defs><g transform="translate(-1.839 -7.142)"><path class="a" d="M4.935,11.647H2.618a.428.428,0,0,0-.428.428v6.862a.428.428,0,0,0,.428.428H4.935a.428.428,0,0,0,.428-.428V12.074A.428.428,0,0,0,4.935,11.647ZM3.773,18.619a.719.719,0,1,1,.719-.719A.719.719,0,0,1,3.773,18.619Zm12.045-6.055a1.15,1.15,0,0,0-1.165-1.24H10.522a5.7,5.7,0,0,0,.135-3.151c-.12-.623-.488-1.037-.956-1.029a.8.8,0,0,0-.775.66,12.045,12.045,0,0,1-.232,1.355A7.129,7.129,0,0,1,5.808,12.61v6.065a4.207,4.207,0,0,0,2.206.5c1.245-.024,4.8,0,5.446-.007a1.171,1.171,0,0,0,1.13-.771.9.9,0,0,0-.472-1.128,1.023,1.023,0,0,0,1.036-.715.938.938,0,0,0-.578-1.084c.525-.057.861-.194.988-.667.149-.557-.209-.975-.776-1.218A1.162,1.162,0,0,0,15.818,12.563Z" transform="translate(-0.351 0)"/></g></svg>