<svg xmlns="http://www.w3.org/2000/svg" width="18" height="18" viewBox="0 0 18 18"><defs><style>.a{fill:#fbdbe7;}.b{fill:#ea4c89;fill-rule:evenodd;}</style></defs><g transform="translate(-1055 -391)"><circle class="a" cx="9" cy="9" r="9" transform="translate(1055 391)"/><g transform="translate(1057 388.151)"><path class="b" d="M4.2,10.433H2.5a.312.312,0,0,0-.312.312v5.013a.312.312,0,0,0,.312.312H4.2a.312.312,0,0,0,.312-.312V10.745A.312.312,0,0,0,4.2,10.433Zm-.849,5.094A.525.525,0,1,1,3.872,15,.525.525,0,0,1,3.346,15.527Zm8.8-4.424a.84.84,0,0,0-.851-.906H8.277a4.167,4.167,0,0,0,.1-2.3c-.088-.455-.356-.758-.7-.752a.581.581,0,0,0-.566.482,8.8,8.8,0,0,1-.169.99,5.208,5.208,0,0,1-2.108,2.522v4.431a3.073,3.073,0,0,0,1.612.368c.91-.017,3.508,0,3.979-.005a.855.855,0,0,0,.825-.563.659.659,0,0,0-.344-.824.747.747,0,0,0,.757-.522.685.685,0,0,0-.422-.792c.383-.042.629-.142.722-.487.109-.407-.153-.713-.567-.889A.849.849,0,0,0,12.146,11.1Z" transform="translate(-0.351 0)"/></g></g></svg>