<svg xmlns="http://www.w3.org/2000/svg" width="89.2" height="14.75" viewBox="0 0 89.2 14.75"><defs><style>.a{fill:#404b69;font-size:12px;font-family:Roboto-Regular, Roboto;}.b{fill:#707070;}</style></defs><g transform="translate(-1254.8 -392.65)"><text class="a" transform="translate(1277 404)"><tspan x="0" y="0">3 comments</tspan></text><g transform="translate(1240 377.35)"><g transform="translate(14.8 15.3)"><g transform="translate(0)"><path class="b" d="M18.86,30.05a.921.921,0,0,1-.4-.085.938.938,0,0,1-.553-.871V26.9a3.916,3.916,0,0,1-3.1-3.826V19.211A3.914,3.914,0,0,1,18.711,15.3h7.163a3.914,3.914,0,0,1,3.911,3.911V23.1a3.914,3.914,0,0,1-3.911,3.911H22.919a.573.573,0,0,0-.319.106l-3.124,2.7A.832.832,0,0,1,18.86,30.05Zm-.149-13.688a2.848,2.848,0,0,0-2.848,2.848V23.1a2.824,2.824,0,0,0,2.465,2.806.733.733,0,0,1,.638.723v2.21l2.933-2.55a1.58,1.58,0,0,1,1-.383h2.954A2.848,2.848,0,0,0,28.7,23.058V19.211a2.848,2.848,0,0,0-2.848-2.848Z" transform="translate(-14.8 -15.3)"/></g></g></g></g></svg>