<svg xmlns="http://www.w3.org/2000/svg" xmlns:xlink="http://www.w3.org/1999/xlink" width="128.153" height="106.839" viewBox="0 0 128.153 106.839"><defs><style>.a{fill:#fff;}.b,.t,.u,.v,.w{opacity:0.5;}.c{fill:url(#a);}.d{fill:#f2f2f2;}.e{fill:#e0e0e0;}.f,.i,.o{fill:#f9a826;}.f,.m{opacity:0.7;}.g{fill:#f5f5f5;}.h{clip-path:url(#d);}.i,.k{opacity:0.4;}.j{fill:url(#e);}.k{fill:#bdbdbd;}.l{fill:url(#h);}.m,.p{fill:#3ad29f;}.n{fill:url(#i);}.q,.v{fill:#f55f44;}.r,.u{fill:#fdd835;}.s,.w{fill:#47e6b1;}.t{fill:#4d8af0;}</style><linearGradient id="a" x1="0.5" y1="1" x2="0.5" gradientUnits="objectBoundingBox"><stop offset="0" stop-color="gray" stop-opacity="0.251"/><stop offset="0.54" stop-color="gray" stop-opacity="0.122"/><stop offset="1" stop-color="gray" stop-opacity="0.102"/></linearGradient><clipPath id="d"><rect class="a" width="21.021" height="14.17"/></clipPath><linearGradient id="e" x1="0.5" x2="0.5" y2="0" xlink:href="#a"/><linearGradient id="h" x1="0.511" y1="1.102" x2="0.511" y2="-0.241" xlink:href="#a"/><linearGradient id="i" x1="0.572" y1="0.676" x2="0.572" y2="0.102" xlink:href="#a"/></defs><g transform="translate(0 -0.072)"><g class="b" transform="translate(22.737 12.081)"><rect class="c" width="65.559" height="88.094"/></g><rect class="d" width="63.51" height="85.02" transform="translate(23.592 13.276)"/><rect class="e" width="21.852" height="0.683" transform="translate(28.542 16.862)"/><rect class="f" width="21.852" height="0.683" transform="translate(28.542 19.934)"/><rect class="e" width="21.852" height="0.683" transform="translate(53.639 16.862)"/><rect class="e" width="21.852" height="0.683" transform="translate(57.053 36.325)"/><rect class="e" width="21.852" height="0.683" transform="translate(57.565 38.202)"/><rect class="e" width="21.852" height="0.683" transform="translate(58.589 40.079)"/><rect class="e" width="21.852" height="0.683" transform="translate(57.053 66.542)"/><rect class="e" width="21.852" height="0.683" transform="translate(57.565 68.421)"/><rect class="e" width="21.852" height="0.683" transform="translate(58.589 70.298)"/><g class="b" transform="translate(28.713 29.325)"><rect class="c" width="23.219" height="23.559"/></g><rect class="g" width="22.852" height="22.535" transform="translate(28.859 29.837)"/><g class="b" transform="translate(29.665 31.202)"><rect class="c" width="21.314" height="14.682"/></g><rect class="a" width="21.021" height="14.17" transform="translate(29.811 31.372)"/><g class="h" transform="translate(29.811 31.372)"><path class="i" d="M196.613,248.511l5.293-8.2,2.219,3.586,4.779-4.951L213,243.9l3.586-7.34,9.219,14.682-29.877-1.024Z" transform="translate(-198.394 -234.852)"/><circle class="i" cx="1.537" cy="1.537" r="1.537" transform="translate(0.779 0.512)"/></g><g class="b" transform="translate(28.713 59.542)"><rect class="j" width="23.219" height="23.559"/></g><rect class="g" width="22.852" height="22.535" transform="translate(28.859 60.054)"/><g class="b" transform="translate(29.665 61.421)"><rect class="c" width="21.314" height="14.682"/></g><rect class="a" width="21.021" height="14.17" transform="translate(29.811 61.591)"/><g class="h" transform="translate(29.811 61.591)"><path class="k" d="M196.613,465l5.293-8.195,2.219,3.586,4.779-4.951,4.1,4.951,3.586-7.342,9.219,14.682-29.877-1.025Z" transform="translate(-198.394 -451.343)"/><circle class="k" cx="1.537" cy="1.537" r="1.537" transform="translate(0.779 0.512)"/></g><g class="b" transform="translate(32.363 7.729)"><rect class="l" width="88.094" height="65.559" transform="translate(0 86.404) rotate(-78.76)"/></g><rect class="a" width="85.02" height="63.51" transform="translate(33.565 92.457) rotate(-78.76)"/><rect class="e" width="45.071" height="0.683" transform="translate(53.899 13.816) rotate(11.24)"/><rect class="e" width="45.071" height="0.683" transform="translate(41.32 77.114) rotate(11.24)"/><rect class="e" width="34.828" height="0.683" transform="translate(40.555 80.966) rotate(11.24)"/><rect class="f" width="12.975" height="0.683" transform="translate(39.79 84.816) rotate(11.24)"/><rect class="f" width="22.535" height="0.683" transform="translate(53.135 17.669) rotate(11.24)"/><rect class="e" width="40.633" height="0.683" transform="translate(52.37 21.52) rotate(11.24)"/><rect class="m" width="9.902" height="0.683" transform="translate(51.605 25.372) rotate(11.24)"/><rect class="e" width="45.071" height="0.683" transform="translate(50.838 29.222) rotate(11.24)"/><g class="b" transform="translate(50.209 45.489)"><rect class="n" width="23.219" height="40.461" transform="translate(0 22.774) rotate(-78.76)"/></g><rect class="a" width="39.95" height="22.707" transform="translate(54.96 45.708) rotate(11.24)"/><rect class="e" width="45.071" height="0.683" transform="translate(50.073 33.074) rotate(11.24)"/><rect class="o" width="4.951" height="16.56" transform="translate(58.464 49.537) rotate(11.24)"/><rect class="p" width="4.951" height="11.096" transform="translate(66.106 56.627) rotate(11.24)"/><rect class="q" width="4.951" height="5.975" transform="translate(73.816 63.379) rotate(11.24)"/><rect class="r" width="4.951" height="12.121" transform="translate(83.721 59.082) rotate(11.24)"/><g class="b" transform="translate(16.763 90.103)"><rect class="s" width="0.512" height="2.902" transform="translate(1.193)"/><rect class="s" width="0.512" height="2.902" transform="translate(2.902 1.195) rotate(90)"/></g><path class="t" d="M686.613,68.455a.627.627,0,0,1-.349-.758.3.3,0,0,0,.014-.07h0a.314.314,0,0,0-.558-.208h0a.3.3,0,0,0-.035.061.627.627,0,0,1-.758.349.3.3,0,0,0-.07-.014h0a.314.314,0,0,0-.208.558h0a.3.3,0,0,0,.061.035.627.627,0,0,1,.349.758.3.3,0,0,0-.014.07h0a.314.314,0,0,0,.558.208h0a.3.3,0,0,0,.035-.061.627.627,0,0,1,.758-.349.3.3,0,0,0,.07.014h0a.314.314,0,0,0,.208-.558h0A.3.3,0,0,0,686.613,68.455Z" transform="translate(-608.657 -67.23)"/><path class="u" d="M273.5,172.295a.627.627,0,0,1-.349-.758.3.3,0,0,0,.014-.07h0a.314.314,0,0,0-.558-.208h0a.3.3,0,0,0-.035.061.627.627,0,0,1-.758.349.3.3,0,0,0-.07-.014h0a.314.314,0,0,0-.208.558h0a.3.3,0,0,0,.061.035.627.627,0,0,1,.349.758.3.3,0,0,0-.014.07h0a.314.314,0,0,0,.558.208h0a.3.3,0,0,0,.035-.061.627.627,0,0,1,.758-.349.3.3,0,0,0,.07.014h0a.314.314,0,0,0,.208-.558h0A.3.3,0,0,0,273.5,172.295Z" transform="translate(-253.209 -156.576)"/><path class="u" d="M240.8,477.355a.627.627,0,0,1-.349-.758.3.3,0,0,0,.014-.07h0a.314.314,0,0,0-.558-.208h0a.305.305,0,0,0-.035.061.627.627,0,0,1-.758.349.3.3,0,0,0-.07-.014h0a.314.314,0,0,0-.208.558h0a.3.3,0,0,0,.061.035.627.627,0,0,1,.349.758.3.3,0,0,0-.014.07h0a.314.314,0,0,0,.558.208h0a.3.3,0,0,0,.035-.061.627.627,0,0,1,.758-.349.3.3,0,0,0,.07.014h0a.314.314,0,0,0,.208-.558h0A.3.3,0,0,0,240.8,477.355Z" transform="translate(-225.073 -419.056)"/><circle class="v" cx="1.025" cy="1.025" r="1.025" transform="translate(46.126 3.032)"/><circle class="v" cx="1.025" cy="1.025" r="1.025" transform="translate(0 43.348)"/><circle class="v" cx="1.025" cy="1.025" r="1.025" transform="translate(119.538 15.837)"/><circle class="t" cx="1.025" cy="1.025" r="1.025" transform="translate(113.733 46.397)"/><circle class="w" cx="1.025" cy="1.025" r="1.025" transform="translate(4.235 19.307)"/><circle class="w" cx="1.025" cy="1.025" r="1.025" transform="translate(118.076 89.392)"/><circle class="w" cx="1.025" cy="1.025" r="1.025" transform="translate(126.104 59.192)"/></g></svg>